<?xml version="1.0" encoding="UTF-8"?>
<svg width="334px" height="421px" viewBox="0 0 334 421" version="1.1" xmlns="http://www.w3.org/2000/svg" xmlns:xlink="http://www.w3.org/1999/xlink">
    <!-- Generator: Sketch 52.6 (67491) - http://www.bohemiancoding.com/sketch -->
    <title>Slice 1</title>
    <desc>Created with Sketch.</desc>
    <g id="Page-1" stroke="none" stroke-width="1" fill="none" fill-rule="evenodd">
        <g id="icon-new-file" transform="translate(-34.000000, -42.000000)">
            <g transform="translate(35.000000, 43.000000)">
                <path d="M187.473684,50.4259229 C187.473684,70.3183995 203.614995,86.444438 223.526312,86.444438 L274,86.444438 L274,247.519256 C266.923291,245.771373 259.658138,244.90038 252.368417,244.925923 C200.800948,245.242419 159.142444,287.054487 159.064208,338.574077 C158.917433,356.418459 163.92449,373.926578 173.48526,389 L21.6315748,389 C9.68478592,389 2.95107116e-15,379.324378 0,367.388893 L0,21.6111074 C2.95107116e-15,9.67562237 9.68478592,-2.94827891e-15 21.6315748,0 L187.473684,0 L187.473684,50.4259229 Z" id="Path" stroke="#77A889" fill="#D9FCE6" fill-rule="nonzero" stroke-linejoin="round"></path>
                <path d="M187.473684,259.333331 L50.4736801,259.333331 C46.4914163,259.333331 43.2631537,256.108122 43.2631537,252.129627 C43.2631537,248.151131 46.4914163,244.925923 50.4736801,244.925923 L136.999996,244.925923 C140.98226,244.925923 144.210522,248.151131 144.210522,252.129627 C144.210522,256.108122 140.98226,259.333331 136.999996,259.333331 L187.473684,259.333331 Z" id="svg_4-path" fill="#D9FCE6" fill-rule="nonzero"></path>
                <path d="M274,144.074069 L50.4736801,144.074069 C46.4914163,144.074069 43.2631537,140.848861 43.2631537,136.870365 C43.2631537,132.891869 46.4914163,129.666661 50.4736801,129.666661 L223.526312,129.666661 C227.508575,129.666661 230.736838,132.891869 230.736838,136.870365 C230.736838,140.848861 227.508575,144.074069 223.526312,144.074069 L274,144.074069 Z M274,201.7037 L50.4736801,201.7037 C46.4914163,201.7037 43.2631537,198.478492 43.2631537,194.499996 C43.2631537,190.5215 46.4914163,187.296292 50.4736801,187.296292 L223.526312,187.296292 C227.508575,187.296292 230.736838,190.5215 230.736838,194.499996 C230.736838,198.478492 227.508575,201.7037 223.526312,201.7037 L274,201.7037 Z" id="svg_4-path-2" fill="#D9FCE6" fill-rule="nonzero"></path>
                <path d="M279.651647,265.60253 L277.638186,264.883385 C269.687612,262.337616 261.393291,261.027892 253.045186,261 C222.196378,261.021924 194.17479,278.977429 181.263014,306.996149 C168.351238,335.01487 172.905273,367.984259 192.928967,391.452973 L193.79188,392.459777 C215.694659,417.090397 250.573484,425.557456 281.330208,413.710269 C312.086932,401.863081 332.274709,372.184909 331.997174,339.224459 C331.719639,306.264008 311.034965,276.930042 280.083104,265.602531 L279.651648,265.602531 L279.651647,265.60253 Z M281.808927,347.297447 L260.236121,347.297447 L260.236121,368.871809 C260.236121,372.843539 257.01663,376.063262 253.045186,376.063262 C249.073742,376.063262 245.85425,372.843539 245.85425,368.871809 L245.85425,347.297447 L222.55562,347.297447 C219.268044,346.486139 216.991895,343.49099 217.090509,340.105993 C217.090509,338.198701 217.848123,336.369526 219.196685,335.020867 C220.545247,333.672208 222.374289,332.914539 224.281444,332.914539 L245.85425,332.914539 L245.85425,311.340177 C245.767426,308.068399 247.989673,305.185275 251.175543,304.436381 L253.045186,304.436381 C257.01663,304.436381 260.236121,307.656105 260.236121,311.627835 L260.236121,333.202197 L281.808927,333.202197 C285.780371,333.202197 288.999863,336.42192 288.999863,340.393651 C288.999863,344.365381 285.780371,347.585105 281.808927,347.585105 L281.808927,347.297447 Z" id="svg_5" stroke="#77A889" fill="#48BF7E" fill-rule="nonzero"></path>
                <path d="M222.678322,73 C210.705715,73 201,63.2942847 201,51.3216781 L201,11 L263,73 L222.678322,73 Z" id="svg_6" stroke="#77A889" fill="#D2F2DE"></path>
                <rect id="svg_8" fill="#173524" x="40" y="129" width="192" height="15" rx="7.5"></rect>
                <rect id="svg_10" fill="#173524" x="40" y="187" width="192" height="15" rx="7.5"></rect>
                <rect id="svg_11" fill="#173524" x="40" y="245" width="106" height="15" rx="7.5"></rect>
                <path d="M224.5,332 L282.5,332 C286.642136,332 290,335.357864 290,339.5 L290,339.5 C290,343.642136 286.642136,347 282.5,347 L224.5,347 C220.357864,347 217,343.642136 217,339.5 L217,339.5 C217,335.357864 220.357864,332 224.5,332 Z" id="svg_12" fill="#173524" transform="translate(253.500000, 339.500000) rotate(-90.000000) translate(-253.500000, -339.500000) "></path>
                <rect id="svg_13" fill="#173524" x="217" y="332" width="73" height="16" rx="8"></rect>
            </g>
        </g>
    </g>
</svg>